<?xml version="1.0" encoding="utf-8"?>
<!-- Generator: Adobe Illustrator 16.0.0, SVG Export Plug-In . SVG Version: 6.00 Build 0)  -->
<!DOCTYPE svg PUBLIC "-//W3C//DTD SVG 1.1//EN" "http://www.w3.org/Graphics/SVG/1.1/DTD/svg11.dtd">
<svg version="1.1" id="Layer_1" xmlns="http://www.w3.org/2000/svg" xmlns:xlink="http://www.w3.org/1999/xlink" x="0px" y="0px"
	 width="216.208px" height="38.146px" viewBox="0 0 216.208 38.146" style="enable-background:new 0 0 216.208 38.146;"
	 xml:space="preserve">
<style type="text/css">
<![CDATA[
	.st0{fill:url(#SVGID_1_);}
	.st1{fill:url(#SVGID_2_);}
	.st2{fill:url(#SVGID_3_);}
	.st3{fill:url(#SVGID_4_);}
	.st4{fill:#68BC98;}
]]>
</style>
 <defs>
        
        <style>
        .st1,
        .st2,
        .st3,  
        .st0 {
    fill: none;
    stroke:#919090;
    stroke-miterlimit:10;
        stroke-dasharray: 1000;
        stroke-dashoffset: 30;
        -webkit-animation: dash 25s linear forwards;
        -o-animation: dash 25s linear forwards;
        -moz-animation: dash 25s linear forwards;
        animation: dash 25s linear forwards;
   
        }
    @-webkit-keyframes dash {
        
        from {
                stroke-dashoffset: 1000;
    }
            to {
                stroke-dashoffset: 30;
        }
    }
            
        </style>
    </defs>
<g>
	<g>
		<path class="st4" d="M22.751,37.629L22.39,18.748c-0.052-3.973,0.052-9.39,0.052-9.39s-1.651,4.901-2.683,7.223l-6.346,14.498
			L7.016,16.581C5.984,14.259,4.385,9.41,4.385,9.41s0.103,5.675,0.052,9.338L4.076,37.629H0L1.238,1.517H4.54l8.874,21.926
			l8.925-21.926h3.25l1.238,36.112H22.751z"/>
	</g>
	<g>
		<path class="st4" d="M49.163,37.629l-1.806-8.563H37.349l-1.806,8.563h-4.54l8.925-36.112h4.85l8.925,36.112H49.163z
			 M43.952,12.454c-0.722-3.508-1.599-8.513-1.599-8.513s-0.877,5.004-1.599,8.513L38.02,25.557h8.667L43.952,12.454z"/>
	</g>
	<g>
		<path class="st4" d="M71.551,37.629l-2.063-9.234c-0.98-4.437-2.528-5.984-3.611-6.5c-1.187,0.155-2.734,0.258-3.611,0.258v15.477
			h-4.127V1.517h6.552c7.068,0,10.989,2.167,10.989,9.905c0,5.313-2.374,8.048-5.881,9.441c2.115,1.393,2.889,3.714,3.663,6.551
			l2.734,10.215H71.551z M64.328,5.024h-2.063v14.033c5.675-0.31,9.286-1.032,9.286-7.635C71.551,6.16,69.848,5.024,64.328,5.024z"
			/>
	</g>
	<g>
		<path class="st4" d="M90.327,38.146c-4.798,0-9.699-2.579-9.699-18.573C80.628,3.58,86.819,1,90.998,1
			c2.992,0,4.591,1.032,4.591,1.032v3.56c0,0-1.909-1.032-4.746-1.032c-2.941,0-6.088,3.25-6.088,15.013
			c0,11.041,2.27,14.91,5.572,14.91c2.373,0,5.262-1.084,5.262-1.084v3.715C95.589,37.113,92.803,38.146,90.327,38.146z"/>
	</g>
</g>
<g>
	<g>
		<linearGradient id="SVGID_1_" gradientUnits="userSpaceOnUse" x1="128.0283" y1="0" x2="128.0283" y2="38.1138">
			<stop  offset="0" style="stop-color:#69C4A3"/>
			<stop  offset="0.9949" style="stop-color:#38765F"/>
		</linearGradient>
		<path class="st0" d="M131.794,1l8.874,36.113h-7.12l-1.393-7.533h-8.254l-1.393,7.533h-7.12L124.262,1H131.794 M124.727,24.525
			h6.604l-1.703-10.008c-0.619-3.508-1.599-9.957-1.599-9.957s-0.929,6.449-1.548,9.957L124.727,24.525 M132.579,0h-0.784h-7.532
			h-0.784l-0.187,0.761l-8.874,36.114l-0.304,1.238h1.275h7.12h0.832l0.151-0.818l1.242-6.715h6.59l1.241,6.715l0.151,0.818h0.832
			h7.12h1.275l-0.304-1.238l-8.874-36.114L132.579,0L132.579,0z M125.917,23.525l1.548-8.835c0.178-1.009,0.383-2.267,0.583-3.546
			c0.207,1.279,0.416,2.538,0.594,3.547l1.503,8.834H125.917L125.917,23.525z"/>
	</g>
	<g>
		<linearGradient id="SVGID_2_" gradientUnits="userSpaceOnUse" x1="154.853" y1="0" x2="154.853" y2="38.1138">
			<stop  offset="0" style="stop-color:#69C4A3"/>
			<stop  offset="0.9949" style="stop-color:#38765F"/>
		</linearGradient>
		<path class="st1" d="M153.667,1c7.223,0,10.473,2.786,10.473,9.183c0,5.366-2.734,7.377-5.675,8.151
			c3.457,0.671,6.707,2.786,6.707,8.409c0,7.842-3.818,10.37-11.505,10.37h-9.131V1H153.667 M151.242,16.219h1.393
			c3.56,0,4.798-1.547,4.798-5.778c0-4.076-1.599-4.643-4.385-4.643h-1.806V16.219 M151.242,32.314h2.27
			c2.838,0,4.953-0.928,4.953-5.52c0-4.643-1.754-5.933-5.83-5.933h-1.393V32.314 M153.667,0h-9.131h-1v1v36.113v1h1h9.131
			c8.765,0,12.505-3.4,12.505-11.37c0-4.143-1.656-7.047-4.826-8.536c2.521-1.552,3.794-4.239,3.794-8.024
			C165.14,3.235,161.494,0,153.667,0L153.667,0z M152.242,6.798h0.806c2.457,0,3.385,0.314,3.385,3.643
			c0,4.088-1.172,4.778-3.798,4.778h-0.393V6.798L152.242,6.798z M152.242,21.862h0.393c3.746,0,4.83,1.106,4.83,4.933
			c0,3.799-1.389,4.52-3.953,4.52h-1.27V21.862L152.242,21.862z"/>
	</g>
	<g>
		<linearGradient id="SVGID_3_" gradientUnits="userSpaceOnUse" x1="180.0493" y1="0" x2="180.0493" y2="38.1138">
			<stop  offset="0" style="stop-color:#69C4A3"/>
			<stop  offset="0.9949" style="stop-color:#38765F"/>
		</linearGradient>
		<path class="st2" d="M188.642,1l-0.516,5.572h-10.06v8.873h9.028v5.056h-9.028v11.04h10.318v5.572h-17.025V1H188.642 M189.739,0
			h-1.097h-17.283h-1v1v36.113v1h1h17.025h1v-1v-5.572v-1h-1h-9.318v-9.04h8.028h1v-1v-5.056v-1h-1h-8.028V7.572h9.06h0.912
			l0.084-0.908l0.516-5.572L189.739,0L189.739,0z"/>
	</g>
	<g>
		<linearGradient id="SVGID_4_" gradientUnits="userSpaceOnUse" x1="204.6328" y1="0" x2="204.6328" y2="38.1138">
			<stop  offset="0" style="stop-color:#69C4A3"/>
			<stop  offset="0.9949" style="stop-color:#38765F"/>
		</linearGradient>
		<path class="st3" d="M201.641,1c7.119,0,13.567,2.218,13.567,17.541c0,16.044-5.984,18.573-13.567,18.573h-7.584V1H201.641
			 M200.764,31.748h1.187c4.539,0,6.552-1.857,6.552-13.208c0-10.834-2.528-12.227-6.14-12.227h-1.599V31.748 M201.641,0h-7.584h-1
			v1v36.113v1h1h7.584c7.566,0,14.567-2.371,14.567-19.573C216.208,2.203,208.844,0,201.641,0L201.641,0z M201.764,7.313h0.599
			c2.912,0,5.14,0.827,5.14,11.227c0,11.618-2.109,12.208-5.552,12.208h-0.187V7.313L201.764,7.313z"/>
	</g>
</g>
</svg>
